<?xml version="1.0" encoding="iso-8859-1"?>
<!-- Generator: Adobe Illustrator 19.0.0, SVG Export Plug-In . SVG Version: 6.00 Build 0)  -->
<svg version="1.1" id="Capa_1" xmlns="http://www.w3.org/2000/svg" xmlns:xlink="http://www.w3.org/1999/xlink" x="0px" y="0px"
	 viewBox="0 0 453.5 453.5" style="enable-background:new 0 0 453.5 453.5;" xml:space="preserve">
<g>
	<path fill="white" d="M413.5,151.857v65.952c0,13.328-6.995,25.046-17.5,31.698v-97.65h-40v97.65c-10.505-6.652-17.5-18.37-17.5-31.698v-65.952
		h-40v65.952c0,35.819,24.431,66.027,57.5,74.87v151.63h40v-151.63c33.069-8.843,57.5-39.051,57.5-74.87v-65.952H413.5z"/>
	<path fill="white" d="M66.333,134.643c0,56.61,46.057,102.667,102.667,102.667s102.666-46.056,102.666-102.667c0-0.929-0.023-1.857-0.049-2.786
		H318v-40h-48.296C260.372,44.788,218.768,9.191,169,9.191S77.627,44.788,68.295,91.857H20v40h46.382
		C66.356,132.785,66.333,133.714,66.333,134.643z M231.666,134.643c0,34.554-28.112,62.667-62.666,62.667
		c-34.555,0-62.667-28.112-62.667-62.667c0-0.929,0.029-1.858,0.07-2.786h125.193C231.637,132.785,231.666,133.714,231.666,134.643z
		 M169,49.191c27.561,0,51.006,17.893,59.374,42.667H109.625C117.993,67.084,141.438,49.191,169,49.191z"/>
	<path fill="white" d="M169,255.309c-93.187,0-169,75.813-169,169v20h338v-20C338,331.122,262.187,255.309,169,255.309z M213,303.044v101.265h-88
		V303.044c13.738-5,28.555-7.735,44-7.735S199.262,298.044,213,303.044z M85,326.483v77.827H41.548
		C46.383,373.367,62.257,346.038,85,326.483z M253,404.309v-77.827c22.743,19.555,38.617,46.885,43.452,77.827H253z"/>
</g>
<g>
</g>
<g>
</g>
<g>
</g>
<g>
</g>
<g>
</g>
<g>
</g>
<g>
</g>
<g>
</g>
<g>
</g>
<g>
</g>
<g>
</g>
<g>
</g>
<g>
</g>
<g>
</g>
<g>
</g>
</svg>
