<?xml version="1.0" encoding="iso-8859-1"?>
<!-- Generator: Adobe Illustrator 18.0.0, SVG Export Plug-In . SVG Version: 6.00 Build 0)  -->
<!DOCTYPE svg PUBLIC "-//W3C//DTD SVG 1.1//EN" "http://www.w3.org/Graphics/SVG/1.1/DTD/svg11.dtd">
<svg version="1.1" id="Capa_1" xmlns="http://www.w3.org/2000/svg" xmlns:xlink="http://www.w3.org/1999/xlink" x="0px" y="0px"
	 viewBox="0 0 353.221 353.221" style="enable-background:new 0 0 353.221 353.221;" xml:space="preserve">
<g>
	<path style="fill:white;" d="M343.221,153.558h-33.687l-30.966-53.532c-1.787-3.09-5.087-4.993-8.656-4.993h-52.337V82.455
		c0-5.523-4.478-10-10-10H10c-5.522,0-10,4.477-10,10v157.537c0,5.523,4.478,10,10,10h41.154
		c3.946,17.589,19.677,30.774,38.44,30.774c18.762,0,34.493-13.186,38.439-30.774h111.194c3.946,17.589,19.677,30.774,38.439,30.774
		s34.493-13.186,38.439-30.774h27.115c5.522,0,10-4.477,10-10v-76.434C353.221,158.035,348.743,153.558,343.221,153.558z
		 M297.068,241.364c0,10.698-8.704,19.402-19.402,19.402s-19.402-8.704-19.402-19.402c0-10.699,8.704-19.403,19.402-19.403
		S297.068,230.665,297.068,241.364z M108.996,241.364c0,10.698-8.704,19.402-19.402,19.402c-10.699,0-19.403-8.704-19.403-19.402
		c0-10.699,8.704-19.403,19.403-19.403C100.292,221.961,108.996,230.665,108.996,241.364z M20,92.455h177.575v137.537h-70.259
		c-4.893-16.199-19.949-28.031-37.722-28.031c-17.774,0-32.831,11.832-37.723,28.031H20V92.455z M333.221,229.992h-17.832
		c-4.893-16.199-19.949-28.031-37.722-28.031s-32.83,11.832-37.722,28.031h-22.368v-56.434h115.646V229.992z M264.145,115.033
		l22.284,38.525h-68.854v-38.525H264.145z"/>
</g>
<g>
</g>
<g>
</g>
<g>
</g>
<g>
</g>
<g>
</g>
<g>
</g>
<g>
</g>
<g>
</g>
<g>
</g>
<g>
</g>
<g>
</g>
<g>
</g>
<g>
</g>
<g>
</g>
<g>
</g>
</svg>
